<svg width="196" height="25" viewBox="0 0 196 25" fill="none" xmlns="http://www.w3.org/2000/svg">
<g clip-path="url(#clip0_5260_5000)">
<path d="M15.9341 9.93L10.3731 5.24707H0.421875L12.4219 14.9056H2.17797L13.5926 24.2715H23.2511L12.4219 14.9056H22.0804L27.6414 19.5885H37.2999L25.5926 9.93H15.9341Z" fill="white"/>
<path d="M15.9341 9.93L10.3731 5.24707H0.421875L12.4219 14.9056H22.0804L27.6414 19.5885H37.2999L25.5926 9.93H15.9341Z" fill="white"/>
<path d="M35.245 9.93031L24.4158 0.564453H14.1719L25.5865 9.93031H35.245Z" fill="white"/>
<path d="M55.671 10.8256H50.2857V5.21191H46.8203V19.4948H50.2857V13.9222H55.671V19.4948H59.1423V5.21191H55.671V10.8256Z" fill="white"/>
<path d="M73.7495 5.21191L70.6061 10.1583L67.1583 5.21191H63.2188L68.85 13.1729V19.4948H72.3388V13.1319L77.5602 5.21191H73.7495Z" fill="white"/>
<path d="M90.2143 5.8274C89.4811 5.42098 88.6523 5.21882 87.8143 5.24203H81.6562V19.525H85.1275V14.7191H87.8202C88.6631 14.7334 89.4936 14.5146 90.2201 14.0869C90.9161 13.6677 91.4911 13.0746 91.8884 12.3659C92.3129 11.6024 92.527 10.7398 92.5089 9.86642C92.5186 9.04787 92.3115 8.24134 91.9084 7.52883C91.5054 6.81631 90.9209 6.22321 90.2143 5.80983V5.8274ZM88.7333 10.844C88.5876 11.083 88.3869 11.2837 88.148 11.4293C87.9002 11.5769 87.6168 11.6538 87.3284 11.6518H85.0689V8.27422H87.3284C87.6146 8.27186 87.8966 8.34237 88.148 8.4791C88.3906 8.62008 88.5923 8.82182 88.7333 9.06447C88.887 9.33956 88.9638 9.65093 88.9558 9.96593C88.9597 10.273 88.883 10.5758 88.7333 10.844Z" fill="white"/>
<path d="M101.585 13.6412H107.257V10.8256H101.585V8.17386H108.176V5.21191H98.2188V19.4948H108.381V16.5329H101.585V13.6412Z" fill="white"/>
<path d="M123.351 13.8632C124.079 13.4717 124.686 12.8888 125.107 12.1773C125.533 11.4436 125.751 10.608 125.739 9.75978C125.752 8.93545 125.533 8.12408 125.107 7.41832C124.677 6.7302 124.071 6.17017 123.351 5.79685C122.584 5.40006 121.732 5.19897 120.869 5.21149H114.43V19.4944H117.731V14.472H119.487L122.315 19.4944H126.272L123.111 13.9627L123.351 13.8632ZM117.743 8.10905H120.254C120.637 8.09923 121.017 8.17524 121.366 8.33149C121.658 8.47326 121.902 8.69703 122.069 8.97539C122.237 9.27128 122.322 9.60698 122.315 9.9471C122.322 10.2856 122.248 10.6209 122.098 10.9247C121.973 11.1984 121.769 11.4286 121.513 11.5861C121.229 11.7468 120.908 11.8277 120.582 11.8203H117.766L117.743 8.10905Z" fill="white"/>
<path d="M140.15 5.8274C139.417 5.42098 138.588 5.21882 137.75 5.24203H131.609V19.525H135.075V14.7191H137.767C138.61 14.734 139.441 14.5152 140.167 14.0869C140.863 13.6677 141.438 13.0746 141.836 12.3659C142.272 11.6058 142.499 10.743 142.491 9.86642C142.493 9.04624 142.277 8.24024 141.866 7.53066C141.455 6.82109 140.863 6.23334 140.15 5.8274ZM138.669 10.844C138.525 11.0843 138.324 11.2853 138.084 11.4293C137.838 11.5769 137.556 11.6539 137.27 11.6518H135.004V8.27422H137.27C137.554 8.27182 137.834 8.34236 138.084 8.4791C138.327 8.61852 138.529 8.82063 138.669 9.06447C138.827 9.33797 138.904 9.65048 138.891 9.96593C138.901 10.2715 138.83 10.5741 138.686 10.844H138.669Z" fill="white"/>
<path d="M159.351 6.98576C158.683 6.31844 157.886 5.79283 157.01 5.4404C155.108 4.70476 153 4.70476 151.098 5.4404C150.215 5.7904 149.412 6.31581 148.738 6.98489C148.064 7.65396 147.532 8.45279 147.176 9.33308C146.803 10.2756 146.616 11.2814 146.625 12.295C146.616 13.3067 146.803 14.3107 147.176 15.2511C147.53 16.1292 148.057 16.9267 148.727 17.5956C149.397 18.2646 150.196 18.7912 151.074 19.1438C152.021 19.5232 153.034 19.7121 154.054 19.6999C155.056 19.7092 156.051 19.5202 156.98 19.1438C157.857 18.7914 158.653 18.2658 159.322 17.5984C159.991 16.9326 160.515 16.1354 160.861 15.257C161.229 14.3252 161.413 13.3316 161.406 12.3302C161.417 11.3169 161.233 10.3111 160.861 9.3682C160.527 8.47855 160.013 7.66746 159.351 6.98576ZM157.595 13.9458C157.415 14.4334 157.14 14.8809 156.787 15.2628C156.445 15.634 156.028 15.9291 155.564 16.1292C154.578 16.5351 153.471 16.5351 152.485 16.1292C152.029 15.9237 151.617 15.6315 151.273 15.2687C150.915 14.8949 150.64 14.4502 150.465 13.9633C150.281 13.4286 150.19 12.8663 150.196 12.3009C150.189 11.7372 150.28 11.1766 150.465 10.6443C150.641 10.1613 150.912 9.71876 151.263 9.3435C151.614 8.96824 152.038 8.668 152.508 8.46089C153.494 8.05498 154.601 8.05498 155.587 8.46089C156.051 8.6631 156.468 8.96019 156.811 9.33308C157.165 9.71199 157.439 10.1578 157.619 10.6443C158.001 11.7136 158.001 12.8823 157.619 13.9516L157.595 13.9458Z" fill="white"/>
<path d="M178.369 6.98576C177.7 6.31844 176.904 5.79283 176.028 5.4404C174.126 4.70476 172.017 4.70476 170.115 5.4404C169.239 5.79283 168.443 6.31844 167.774 6.98576C167.106 7.65528 166.579 8.45131 166.223 9.32723C165.847 10.2689 165.66 11.2753 165.672 12.2892C165.66 13.3011 165.847 14.3056 166.223 15.2453C166.579 16.1212 167.106 16.9172 167.774 17.5867C168.443 18.2541 169.239 18.7797 170.115 19.1321C171.061 19.5109 172.071 19.6998 173.089 19.6882C174.092 19.6975 175.086 19.5085 176.016 19.1321C176.892 18.7797 177.689 18.2541 178.357 17.5867C179.025 16.9193 179.549 16.1225 179.897 15.2453C180.262 14.3132 180.445 13.3195 180.435 12.3184C180.449 11.3056 180.266 10.2998 179.897 9.3565C179.554 8.47064 179.034 7.66398 178.369 6.98576ZM176.613 13.9458C176.43 14.432 176.156 14.879 175.805 15.2628C175.462 15.634 175.046 15.9291 174.582 16.1292C173.861 16.4442 173.061 16.5305 172.289 16.3767C171.518 16.2228 170.812 15.8361 170.268 15.2687C169.918 14.8928 169.651 14.4482 169.483 13.9633C169.297 13.429 169.204 12.8667 169.208 12.3009C169.203 11.7369 169.296 11.1763 169.483 10.6443C169.66 10.1567 169.935 9.71042 170.291 9.33308C170.639 8.96117 171.059 8.66436 171.526 8.46089C172.512 8.05498 173.619 8.05498 174.605 8.46089C175.069 8.6631 175.486 8.96019 175.829 9.33308C176.181 9.71349 176.455 10.1589 176.636 10.6443C177.019 11.7136 177.019 12.8823 176.636 13.9516L176.613 13.9458Z" fill="white"/>
<path d="M189.059 16.4334V5.21191H185.594V19.4948H195.422V16.4334H189.059Z" fill="white"/>
</g>
<defs>
<clipPath id="clip0_5260_5000">
<rect width="195.524" height="24" fill="white" transform="translate(0.25 0.5)"/>
</clipPath>
</defs>
</svg>
