<svg width="1400" height="210" viewBox="0 0 1400 210" fill="none" xmlns="http://www.w3.org/2000/svg">
<path d="M997.067 188.633H942.931L943.043 188.568H997.225L997.067 188.633ZM943.127 188.58L926.831 197.929H926.523L942.801 188.58H943.127ZM1020.06 177.842H961.711L961.841 177.772H1020.21L1020.06 177.842ZM961.953 177.789L943.127 188.58H942.791L961.599 177.789H961.953ZM1046.89 165.249H983.654L983.794 165.166H1047.07L1046.89 165.249ZM983.916 165.19L961.953 177.789H961.599L983.551 165.19H983.916ZM1078.65 150.345H1009.58L1009.76 150.251H1078.83L1078.65 150.345ZM1009.92 150.28L983.916 165.19H983.533L1009.5 150.28H1009.92ZM1116.81 132.445H1040.82L1041.04 132.321H1117.07L1116.81 132.445ZM1041.21 132.368L1009.9 150.28H1009.48L1040.7 132.368H1041.21ZM1163.52 110.538H1079.03L1079.29 110.391H1163.84L1163.52 110.538ZM1079.42 110.45L1041.15 132.368H1040.7L1078.89 110.45H1079.42ZM1222 83.1062H1126.79L1127.12 82.9171H1222.32L1222 83.1062ZM1127.3 83.0058L1079.42 110.45H1078.9L1126.72 83.0058H1127.3ZM1297.38 47.7611H1188.44L1188.87 47.5129H1297.86L1297.38 47.7611ZM1189.03 47.637L1127.34 83.0058H1126.76L1188.36 47.637H1189.03ZM1271.52 0.360489L1189.03 47.637H1188.37L1270.75 0.360489H1271.52ZM942.978 188.627H888.843L888.927 188.562H943.062L942.978 188.627ZM888.974 188.545L876.289 197.911H875.981L888.638 188.545H888.974ZM961.711 177.807H903.385L903.478 177.736H961.841L961.711 177.807ZM903.609 177.754L888.974 188.545H888.638L903.254 177.754H903.609ZM983.673 165.214H920.447L920.559 165.131H983.813L983.673 165.214ZM920.699 165.155L903.609 177.772H903.254L920.297 165.172L920.699 165.155ZM1009.64 150.31H940.635L940.766 150.209H1009.84L1009.64 150.31ZM940.915 150.245L920.699 165.172H920.297L940.486 150.263L940.915 150.245ZM1040.84 132.404H964.884L965.052 132.286H1041.06L1040.84 132.404ZM965.239 132.327L940.971 150.233H940.551L964.819 132.327H965.239ZM1079.11 110.497H994.64L994.845 110.343H1079.36L1079.11 110.497ZM995.004 110.408L965.276 132.327H964.809L994.481 110.408H995.004ZM1126.92 83.0708H1031.81L1032.06 82.8817H1127.26L1126.92 83.0708ZM1032.22 82.9644L994.966 110.438H994.444L1031.6 82.9939L1032.22 82.9644ZM1188.52 47.7316H1079.6L1079.94 47.4834H1188.87L1188.52 47.7316ZM1080.17 47.6075L1032.22 82.9644H1031.64L1079.51 47.6075H1080.17ZM1144.3 0.330948L1080.17 47.6075H1079.51L1143.52 0.330948H1144.3ZM888.759 188.598H834.624L834.68 188.533H888.815L888.759 188.598ZM834.829 188.545L825.776 197.894H825.468L834.493 188.545H834.829ZM903.385 177.807H845.059L845.133 177.736H903.478L903.385 177.807ZM845.273 177.754L834.829 188.545H834.493L844.919 177.754H845.273ZM920.447 165.214H857.239L857.323 165.131H920.559L920.447 165.214ZM857.473 165.155L845.273 177.754H844.919L857.053 165.155H857.473ZM940.635 150.316H871.65L871.744 150.215H940.766L940.635 150.316ZM871.902 150.245L857.473 165.155H857.09L871.482 150.245H871.902ZM964.884 132.404H888.955L889.067 132.286H965.052L964.884 132.404ZM889.282 132.327L871.94 150.233H871.52L888.815 132.327H889.282ZM994.565 110.538H910.133L910.273 110.391H994.771L994.565 110.538ZM910.46 110.45L889.244 132.362H888.778L909.946 110.45H910.46ZM1031.73 83.1121H936.65L936.827 82.9289H1032.03L1031.73 83.1121ZM937.033 83.0117L910.46 110.45H909.946L936.454 83.0058L937.033 83.0117ZM1079.6 47.7847H970.811L971.044 47.5365H1079.9L1079.6 47.7847ZM971.259 47.6547L937.033 83.0117H936.454L970.596 47.6607L971.259 47.6547ZM1016.99 0.378204L971.259 47.6547H970.596L1016.25 0.378204H1016.99ZM834.633 188.58H780.498V188.515H834.633V188.58ZM780.694 188.545L775.271 197.876H774.963L780.358 188.545H780.694ZM845.096 177.807H786.798V177.736H845.133L845.096 177.807ZM786.994 177.754L780.694 188.545H780.358L786.602 177.754H786.994ZM857.277 165.214H794.088V165.131H857.314L857.277 165.214ZM794.302 165.155L786.994 177.754H786.64L793.92 165.155H794.302ZM871.688 150.316H802.721L802.777 150.215H871.781L871.688 150.316ZM802.955 150.251L794.293 165.137H793.911L802.525 150.233L802.955 150.251ZM888.955 132.404H813.044L813.119 132.28H889.067L888.955 132.404ZM813.352 132.333L802.955 150.239H802.535L812.886 132.333H813.352ZM910.17 110.503H825.766L825.85 110.355H910.31L910.17 110.503ZM826.065 110.414L813.352 132.333H812.886L825.552 110.414H826.065ZM936.687 83.0826H841.605L841.717 82.8935H936.827L936.687 83.0826ZM841.988 82.9821L826.028 110.408H825.514L841.381 82.9762L841.988 82.9821ZM970.848 47.7611H862.065L862.205 47.5129H971.044L970.848 47.7611ZM862.429 47.6311L841.895 82.9762H841.316L861.747 47.6311H862.429ZM889.851 0.354568L862.429 47.6311H861.766L889.076 0.354568H889.851ZM780.507 188.545H726.372V188.48H780.507V188.545ZM726.578 188.497L724.776 197.858H724.468L726.242 188.509L726.578 188.497ZM786.761 177.754H728.472V177.683H786.789L786.761 177.754ZM728.65 177.701L726.578 188.497H726.242L728.295 177.707L728.65 177.701ZM794.05 165.161H730.88V165.078H794.078L794.05 165.161ZM731.086 165.101L728.65 177.701H728.295L730.694 165.101H731.086ZM802.693 150.28H733.746V150.18H802.731L802.693 150.28ZM733.96 150.215L731.095 165.119H730.703L733.503 150.215H733.96ZM813.044 132.404H737.162V132.286H813.1L813.044 132.404ZM737.442 132.327L733.988 150.233H733.568L736.975 132.327H737.442ZM825.766 110.503H741.39V110.355H825.822L825.766 110.503ZM741.661 110.414L737.442 132.327H736.975L741.091 110.397L741.661 110.414ZM841.643 83.0885H746.645V82.8994H841.717L841.643 83.0885ZM746.953 82.9821L741.661 110.414H741.091L746.318 82.9821H746.953ZM862.102 47.7729H753.365L753.412 47.5247H862.205L862.102 47.7729ZM753.757 47.6429L746.953 82.9821H746.374L753.094 47.6429H753.757ZM762.867 0.401855L753.757 47.6429H753.094L762.092 0.401855H762.867ZM726.4 188.545H672.265V188.48H726.4V188.545ZM672.47 188.497L674.29 197.84H673.982L672.116 188.497H672.47ZM728.472 177.754H670.193V177.683H728.491L728.472 177.754ZM670.361 177.701L672.47 188.497H672.134L670.006 177.701H670.361ZM730.88 165.161H667.729V165.078H730.918L730.88 165.161ZM667.906 165.101L670.361 177.701H670.006L667.524 165.101H667.906ZM733.736 150.263H664.807V150.162H733.774L733.736 150.263ZM665.003 150.198L667.906 165.101H667.524L664.555 150.198H665.003ZM737.162 132.368H661.298V132.25H737.199L737.162 132.368ZM661.559 132.292L665.041 150.198H664.555L661.027 132.292H661.559ZM741.39 110.473H657.051V110.326H741.446L741.39 110.473ZM657.294 110.385L661.559 132.292H661.093L656.781 110.385H657.294ZM746.645 83.0589H651.638V82.8698H746.692L746.645 83.0589ZM651.946 82.9585L657.294 110.385H656.781L651.367 82.9585H651.946ZM753.402 47.7493H644.721V47.5011H753.412L753.402 47.7493ZM645.067 47.6252L651.946 82.9585H651.367L644.404 47.6252H645.067ZM635.864 0.39003L645.067 47.6252H644.404L635.07 0.39003H635.864ZM672.302 188.545H618.223V188.48H672.358L672.302 188.545ZM618.373 188.497L623.814 197.823H623.487L618.018 188.48L618.373 188.497ZM670.156 177.736H611.895V177.665H670.184L670.156 177.736ZM612.054 177.683L618.335 188.48H617.999L611.699 177.683H612.054ZM667.729 165.143H604.587V165.06H667.757L667.729 165.143ZM604.755 165.084L612.091 177.683H611.736L604.372 165.084H604.755ZM664.807 150.245H595.897L595.841 150.15H664.789L664.807 150.245ZM596.084 150.18L604.755 165.084H604.372L595.664 150.18H596.084ZM661.298 132.351H585.462L585.397 132.227H661.279L661.298 132.351ZM585.696 132.28L596.121 150.18H595.701L585.219 132.28H585.696ZM657.051 110.456H572.731L572.647 110.308H657.023L657.051 110.456ZM572.946 110.373L585.696 132.28H585.219L572.414 110.373H572.946ZM651.675 83.053H556.752L556.64 82.8639H651.638L651.675 83.053ZM556.985 82.9467L572.946 110.373H572.432L556.407 82.9467H556.985ZM644.721 47.7493H536.125L535.985 47.5011H644.675L644.721 47.7493ZM536.386 47.6193L556.92 82.9467H556.341L535.751 47.6193H536.386ZM508.908 0.401855L536.386 47.6193H535.751L508.161 0.401855H508.908ZM618.223 188.509H564.153L564.097 188.444H618.233L618.223 188.509ZM564.284 188.462L573.347 197.805H573.086L564.004 188.462H564.284ZM611.886 177.718H553.634L553.569 177.647H611.848L611.886 177.718ZM553.784 177.665L564.237 188.462H563.911L553.485 177.665H553.784ZM604.54 165.125H541.417L541.342 165.042H604.494L604.54 165.125ZM541.566 165.066L553.784 177.665H553.485L541.23 165.066H541.566ZM595.851 150.227H526.968L526.866 150.127H595.795L595.851 150.227ZM527.174 150.133L541.613 165.036H541.23L526.754 150.133H527.174ZM585.462 132.309H509.654L509.533 132.191H585.397L585.462 132.309ZM509.86 132.232L527.174 150.133H526.754L509.365 132.232H509.86ZM572.731 110.414H488.448L488.308 110.267H572.647L572.731 110.414ZM488.635 110.326L509.86 132.232H509.402L488.122 110.326H488.635ZM556.771 83.0117H461.885L461.698 82.8226H556.659L556.771 83.0117ZM462.015 82.9348L488.588 110.355H488.075L461.437 82.9348H462.015ZM536.115 47.7434H427.584L427.341 47.4952H535.985L536.115 47.7434ZM427.789 47.6193L462.015 82.9348H461.437L427.126 47.6193H427.789ZM382.054 0.413666L427.789 47.6193H427.126L381.261 0.413666H382.054ZM564.153 188.492H510.093L510.009 188.427H564.144L564.153 188.492ZM510.214 188.444L522.899 197.793H522.591L509.888 188.444H510.214ZM553.681 177.701H495.449L495.355 177.63H553.616L553.681 177.701ZM495.617 177.647L510.252 188.444H509.925L495.225 177.647H495.617ZM541.501 165.107H478.396L478.284 165.025H541.426L541.501 165.107ZM478.536 165.048L495.617 177.647H495.262L478.116 165.048H478.536ZM527.071 150.215H458.198L458.067 150.115H526.968L527.071 150.215ZM458.282 150.133L478.489 165.036H478.107L457.871 150.133H458.282ZM509.617 132.309H433.828L433.669 132.185H509.496L509.617 132.309ZM434.014 132.232L458.282 150.133H457.862L433.548 132.232H434.014ZM488.411 110.42H404.156L403.96 110.272H488.271L488.411 110.42ZM404.315 110.332L434.014 132.244H433.557L403.801 110.343L404.315 110.332ZM461.829 83.0176H366.971L366.719 82.8285H461.642L461.829 83.0176ZM367.139 82.9171L404.315 110.332H403.801L366.56 82.9171H367.139ZM427.584 47.7316H319.089L318.753 47.4834H427.341L427.584 47.7316ZM319.211 47.6134L367.102 82.9289H366.523L318.548 47.6134H319.211ZM255.219 0.419586L319.211 47.6134H318.548L254.444 0.419586H255.219ZM510.028 188.474H455.986L455.874 188.415H509.944L510.028 188.474ZM456.098 188.427L472.45 197.775H472.142L455.827 188.427H456.098ZM495.383 177.683H437.169L437.048 177.612H495.29L495.383 177.683ZM437.281 177.63L456.163 188.427H455.827L436.992 177.63H437.281ZM478.293 165.09H415.207L415.058 165.007H478.181L478.293 165.09ZM415.329 165.031L437.281 177.63H436.927L415.011 165.031H415.329ZM458.077 150.198H389.232L389.064 150.097H457.946L458.077 150.198ZM389.418 150.133L415.394 165.031H415.011L388.998 150.133H389.418ZM433.865 132.309H358.104L357.889 132.191H433.706L433.865 132.309ZM358.263 132.232L389.418 150.133H388.998L357.768 132.232H358.263ZM404.147 110.42H319.92L319.668 110.272H403.951L404.147 110.42ZM320.051 110.332L358.216 132.232H357.759L319.537 110.332H320.051ZM366.962 83.0235H272.15L271.824 82.8344H366.71L366.962 83.0235ZM272.281 82.9171L320.051 110.332H319.537L271.702 82.9171H272.281ZM319.08 47.7375H210.642L210.212 47.4893H318.753L319.08 47.7375ZM210.744 47.6134L272.281 82.9171H271.702L210.1 47.6134H210.744ZM128.524 0.431396L210.744 47.6134H210.091L127.75 0.431396H128.524ZM456.051 188.456H402.019L401.888 188.397H455.939L456.051 188.456ZM437.235 177.665H379.03L378.881 177.594H437.113L437.235 177.665ZM415.273 165.072H352.205L352.028 164.989H415.123L415.273 165.072ZM389.297 150.18H320.471L320.256 150.079H389.129L389.297 150.18ZM358.104 132.292H282.361L282.109 132.173H357.889L358.104 132.292ZM319.929 110.426H235.74L235.423 110.278H319.677L319.929 110.426ZM272.16 83.0353H177.386L176.985 82.8521H271.833L272.16 83.0353ZM210.642 47.7611H102.241L101.718 47.5129H210.212L210.642 47.7611ZM977.233 197.947H977.541L977.429 198H977.121L977.233 197.947ZM1398.51 0.336838L1399.23 1.52588e-05H1400L1399.28 0.336838H1398.51ZM421.881 197.758L421.993 197.811H421.685L421.573 197.758H421.881ZM1.49338 0.437317H0.718691L0 0.100464H0.774692L1.49338 0.437317ZM976.897 197.947L996.833 188.598H997.496L977.513 197.947H976.897ZM926.756 197.876H977.317L977.093 197.982L926.57 198L926.756 197.876ZM996.759 188.598L1019.74 177.807H1020.46L997.421 188.598H996.759ZM1019.74 177.807L1046.57 165.208H1047.35L1020.46 177.807H1019.74ZM1046.57 165.208L1078.31 150.298H1079.16L1047.34 165.208H1046.57ZM1078.31 150.298L1116.49 132.404H1117.42L1079.21 150.316L1078.31 150.298ZM1116.49 132.404L1163.16 110.485H1164.19L1117.41 132.404H1116.49ZM1163.16 110.485L1221.61 83.0294H1222.77L1164.19 110.485H1163.16ZM1221.61 83.0294L1296.93 47.6607H1298.31L1222.83 83.0294H1221.61ZM1296.93 47.6607L1397.65 0.354568H1399.21L1298.31 47.6429L1296.93 47.6607ZM1397.73 0.691422H1270.52L1271.7 0.0177307H1399.17L1397.73 0.691422ZM876.215 197.858H926.756L926.57 197.965H876.065L876.215 197.858ZM1270.51 0.685501H1143.37L1144.3 0.0118256H1271.71L1270.51 0.685501ZM825.673 197.84H876.215L876.065 197.947H825.57L825.673 197.84ZM1143.37 0.691422H1016.3L1016.95 0.0177307L1144.3 0.0295563L1143.37 0.691422ZM775.141 197.823H825.673L825.57 197.929H775.084L775.141 197.823ZM1016.31 0.703247H889.31L889.702 0.0295563H1016.96L1016.31 0.703247ZM724.627 197.805H775.141L775.084 197.911H724.608L724.627 197.805ZM889.31 0.709152H762.372L762.503 0.0354614H889.702L889.31 0.709152ZM674.122 197.787H724.627V197.894H674.16L674.122 197.787ZM762.372 0.720978H635.509L635.378 0.0472717H762.503L762.372 0.720978ZM623.628 197.77H674.122V197.876H623.721L623.628 197.77ZM635.509 0.726868L508.684 0.738708L508.292 0.0650024H635.351L635.509 0.726868ZM573.142 197.752H623.628L623.693 197.858H573.244L573.142 197.752ZM508.684 0.738708H381.989L381.335 0.0709229H508.32L508.684 0.738708ZM522.684 197.74H573.16L573.263 197.846H522.861L522.684 197.74ZM381.989 0.744598H255.322L254.388 0.0709229H381.326L381.989 0.744598ZM472.208 197.722L522.684 197.74L522.833 197.846H472.432L472.208 197.722ZM255.322 0.756439H128.73L127.554 0.0827332H254.407L255.322 0.756439ZM402.28 188.409L422.179 197.758H421.563L401.617 188.409H402.28ZM421.75 197.705H472.208L472.394 197.811H421.993L421.75 197.705ZM379.31 177.612L402.28 188.409H401.617L378.601 177.612H379.31ZM352.494 165.013L379.31 177.612H378.601L351.729 165.013H352.494ZM320.788 150.133L352.522 165.031H351.757L319.948 150.133H320.788ZM282.697 132.232L320.788 150.133H319.948L281.773 132.232H282.697ZM236.141 110.32L282.744 132.215H281.811L235.143 110.32H236.141ZM177.815 82.9112L236.141 110.32H235.115L176.658 82.9112H177.815ZM102.67 47.6075L177.797 82.9112H176.639L101.354 47.6075H102.67ZM128.758 0.76825H2.20274L0.774692 0.100464H127.554L128.758 0.76825ZM2.28674 0.437317L102.67 47.6075H101.354L0.718691 0.437317H2.28674Z" fill="url(#paint0_linear_5260_4962)"/>
<path d="M0 0H1400V114H0V0Z" fill="url(#paint1_linear_5260_4962)"/>
<defs>
<linearGradient id="paint0_linear_5260_4962" x1="700" y1="198" x2="700" y2="0" gradientUnits="userSpaceOnUse">
<stop stop-color="#66FD94" stop-opacity="0"/>
<stop offset="1" stop-color="#66FD94"/>
</linearGradient>
<linearGradient id="paint1_linear_5260_4962" x1="700" y1="0" x2="700" y2="113.71" gradientUnits="userSpaceOnUse">
<stop stop-color="#0A0010"/>
<stop offset="0.580426" stop-color="#0A0010" stop-opacity="0.586666"/>
<stop offset="1" stop-color="#0A0010" stop-opacity="0"/>
</linearGradient>
</defs>
</svg>
